<svg width="28" height="16" viewBox="0 0 28 16" fill="none" xmlns="http://www.w3.org/2000/svg">
<g clip-path="url(#clip0_11_52)">
<path d="M3.25586 0L0.0592976 4.53982C0.0248374 4.58655 0.00378268 4.6423 -0.00147595 4.70073C-0.00673458 4.75917 0.00401362 4.81796 0.0295482 4.87042C0.0550828 4.92288 0.0943806 4.96691 0.14298 4.99751C0.191578 5.02811 0.247531 5.04406 0.304484 5.04355H6.80878L3.25586 0Z" fill="#B97F00"/>
<path d="M24.7441 0L21.1927 5.04355H27.6924C27.7497 5.04496 27.8063 5.02967 27.8556 4.99942C27.9048 4.96918 27.9448 4.92521 27.9709 4.87258C27.997 4.81995 28.0082 4.76079 28.0031 4.70192C27.998 4.64306 27.9769 4.58686 27.9421 4.53982L24.7441 0Z" fill="#B97F00"/>
<path d="M14 0H3.25595V5.02158L13.6695 15.8494C13.7129 15.8945 13.7644 15.9303 13.8213 15.9547C13.8782 15.9792 13.9392 15.9918 14.0008 15.9918C14.0624 15.9918 14.1234 15.9792 14.1802 15.9547C14.2371 15.9303 14.2887 15.8945 14.332 15.8494L24.744 5.02158V0H14Z" fill="#FFC632"/>
</g>
<defs>
<clipPath id="clip0_11_52">
<rect width="28" height="16" fill="white"/>
</clipPath>
</defs>
</svg>
