<svg width="28" height="16" viewBox="0 0 28 16" fill="none" xmlns="http://www.w3.org/2000/svg">
<g clip-path="url(#clip0_11_56)">
<path d="M24.7441 16L27.9407 11.4602C27.9752 11.4135 27.9962 11.3577 28.0015 11.2993C28.0067 11.2408 27.996 11.182 27.9705 11.1296C27.9449 11.0771 27.9056 11.0331 27.857 11.0025C27.8084 10.9719 27.7525 10.9559 27.6955 10.9565L21.1912 10.9565L24.7441 16Z" fill="#B97F00"/>
<path d="M3.25595 16L6.80734 10.9565L0.307616 10.9565C0.250276 10.955 0.193711 10.9703 0.144434 11.0006C0.0951581 11.0308 0.0551714 11.0748 0.029076 11.1274C0.00298113 11.1801 -0.00816304 11.2392 -0.0030709 11.2981C0.00202124 11.3569 0.0231432 11.4131 0.0578603 11.4602L3.25595 16Z" fill="#B97F00"/>
<path d="M14 16L24.744 16L24.744 10.9784L14.3305 0.150645C14.2871 0.105524 14.2356 0.0697041 14.1787 0.0452586C14.1218 0.020813 14.0609 0.00822737 13.9992 0.00822736C13.9376 0.00822736 13.8766 0.020813 13.8198 0.0452585C13.7629 0.069704 13.7113 0.105524 13.668 0.150645L3.25596 10.9784L3.25596 16L14 16Z" fill="#FFC632"/>
</g>
<defs>
<clipPath id="clip0_11_56">
<rect width="28" height="16" fill="white" transform="translate(28 16) rotate(-180)"/>
</clipPath>
</defs>
</svg>
