<svg width="120" height="44" viewBox="0 0 120 44" fill="none" xmlns="http://www.w3.org/2000/svg">
<path d="M15.5 13.5H104.5C107.072 13.5 108.974 13.5003 110.482 13.6134C111.985 13.7261 113.058 13.9488 113.977 14.3726C116.031 15.3196 117.68 16.9685 118.627 19.0227C119.051 19.9422 119.274 21.0145 119.387 22.5178C119.5 24.0261 119.5 25.9278 119.5 28.5C119.5 31.0722 119.5 32.9739 119.387 34.4822C119.274 35.9855 119.051 37.0578 118.627 37.9773C117.68 40.0315 116.031 41.6804 113.977 42.6274C113.058 43.0512 111.985 43.2739 110.482 43.3866C108.974 43.4997 107.072 43.5 104.5 43.5H15.5C12.9278 43.5 11.0261 43.4997 9.51777 43.3866C8.01452 43.2739 6.94215 43.0512 6.02273 42.6274C3.96853 41.6804 2.31964 40.0315 1.37264 37.9773C0.948781 37.0578 0.726131 35.9855 0.613422 34.4822C0.500327 32.9739 0.5 31.0722 0.5 28.5C0.5 25.9278 0.500327 24.0261 0.613422 22.5178C0.726131 21.0145 0.948781 19.9422 1.37264 19.0227C2.31964 16.9685 3.96853 15.3196 6.02273 14.3726C6.94215 13.9488 8.01452 13.7261 9.51777 13.6134C11.0261 13.5003 12.9278 13.5 15.5 13.5Z" stroke="white" stroke-opacity="0.05"/>
<rect x="29" width="62" height="20" fill="#2B2C30"/>
<path opacity="0.94" d="M11.6032 31.07C10.9032 31.7767 10.0465 32.13 9.0332 32.13C8.01987 32.13 7.1632 31.7767 6.4632 31.07C5.7632 30.3633 5.4132 29.5067 5.4132 28.5C5.4132 27.4867 5.7632 26.63 6.4632 25.93C7.1632 25.2233 8.01987 24.87 9.0332 24.87C10.0465 24.87 10.9032 25.2233 11.6032 25.93C12.3099 26.63 12.6632 27.4867 12.6632 28.5C12.6632 29.5067 12.3099 30.3633 11.6032 31.07ZM7.1032 30.44C7.6232 30.96 8.26654 31.22 9.0332 31.22C9.79987 31.22 10.4399 30.96 10.9532 30.44C11.4732 29.9133 11.7332 29.2667 11.7332 28.5C11.7332 27.7267 11.4732 27.08 10.9532 26.56C10.4399 26.0333 9.79987 25.77 9.0332 25.77C8.26654 25.77 7.6232 26.0333 7.1032 26.56C6.58987 27.08 6.3332 27.7267 6.3332 28.5C6.3332 29.2667 6.58987 29.9133 7.1032 30.44ZM15.9613 32.13C15.2213 32.13 14.6113 31.8867 14.1313 31.4C13.6513 30.9133 13.4113 30.2867 13.4113 29.52C13.4113 28.6667 13.5346 28.01 13.7813 27.55C14.0346 27.09 14.5479 26.6733 15.3213 26.3C15.4613 26.2333 15.6513 26.1467 15.8913 26.04C16.1379 25.9333 16.3179 25.8533 16.4313 25.8C16.5446 25.74 16.6713 25.6633 16.8113 25.57C16.9513 25.47 17.0546 25.3633 17.1213 25.25C17.1946 25.13 17.2479 24.9933 17.2813 24.84L17.9813 25.24C17.9613 25.3467 17.9346 25.4467 17.9013 25.54C17.8679 25.6267 17.8179 25.7133 17.7513 25.8C17.6913 25.88 17.6379 25.95 17.5913 26.01C17.5446 26.07 17.4646 26.1367 17.3513 26.21C17.2446 26.2767 17.1646 26.3267 17.1113 26.36C17.0646 26.3933 16.9679 26.4433 16.8213 26.51C16.6813 26.5767 16.5846 26.6233 16.5313 26.65C16.4846 26.67 16.3746 26.7167 16.2013 26.79C16.0279 26.8567 15.9213 26.9 15.8813 26.92C15.4279 27.1133 15.0946 27.31 14.8813 27.51C14.6746 27.71 14.5246 27.9633 14.4313 28.27C14.6446 28.0033 14.9113 27.8067 15.2313 27.68C15.5513 27.5533 15.8713 27.49 16.1913 27.49C16.8179 27.49 17.3479 27.7033 17.7813 28.13C18.2213 28.5567 18.4413 29.1067 18.4413 29.78C18.4413 30.46 18.2079 31.0233 17.7413 31.47C17.2746 31.91 16.6813 32.13 15.9613 32.13ZM14.7913 30.85C15.1046 31.1433 15.4946 31.29 15.9613 31.29C16.4279 31.29 16.8113 31.1467 17.1113 30.86C17.4179 30.5733 17.5713 30.2133 17.5713 29.78C17.5713 29.3333 17.4246 28.97 17.1313 28.69C16.8446 28.4033 16.4646 28.26 15.9913 28.26C15.5646 28.26 15.1779 28.3967 14.8313 28.67C14.4913 28.9367 14.3213 29.29 14.3213 29.73C14.3213 30.1833 14.4779 30.5567 14.7913 30.85ZM22.6598 27H23.5898L21.5498 32.31C21.3364 32.8767 21.0364 33.3067 20.6498 33.6C20.2631 33.9 19.8231 34.0333 19.3298 34V33.19C19.9431 33.2367 20.3931 32.9033 20.6798 32.19L20.7598 32.01L18.5898 27H19.5098L21.2198 30.92L22.6598 27ZM27.4663 27H28.3363V32H27.4663V30.2C27.0663 30.3733 26.6163 30.46 26.1163 30.46C25.4763 30.46 24.9796 30.31 24.6263 30.01C24.2796 29.7033 24.1063 29.2533 24.1063 28.66V27H24.9762V28.61C24.9762 28.9833 25.0762 29.25 25.2763 29.41C25.4829 29.57 25.7829 29.65 26.1763 29.65C26.6496 29.65 27.0796 29.5633 27.4663 29.39V27ZM30.268 29.9C30.3547 30.3467 30.558 30.6933 30.878 30.94C31.2047 31.1867 31.6047 31.31 32.078 31.31C32.738 31.31 33.218 31.0667 33.518 30.58L34.258 31C33.7714 31.7533 33.038 32.13 32.058 32.13C31.2647 32.13 30.618 31.8833 30.118 31.39C29.6247 30.89 29.378 30.26 29.378 29.5C29.378 28.7467 29.6214 28.12 30.108 27.62C30.5947 27.12 31.2247 26.87 31.998 26.87C32.7314 26.87 33.328 27.13 33.788 27.65C34.2547 28.1633 34.488 28.7833 34.488 29.51C34.488 29.6367 34.478 29.7667 34.458 29.9H30.268ZM31.998 27.69C31.5314 27.69 31.1447 27.8233 30.838 28.09C30.5314 28.35 30.3414 28.7 30.268 29.14H33.608C33.5347 28.6667 33.348 28.3067 33.048 28.06C32.748 27.8133 32.398 27.69 31.998 27.69ZM38.9481 27H39.8181V32H38.9481V29.91H36.3581V32H35.4881V27H36.3581V29.08H38.9481V27ZM44.7724 27H45.4724V32H44.6124V28.49L41.8424 32H41.1424V27H42.0024V30.51L44.7724 27ZM47.4067 29.9C47.4934 30.3467 47.6967 30.6933 48.0167 30.94C48.3434 31.1867 48.7434 31.31 49.2167 31.31C49.8767 31.31 50.3567 31.0667 50.6567 30.58L51.3967 31C50.9101 31.7533 50.1767 32.13 49.1967 32.13C48.4034 32.13 47.7567 31.8833 47.2567 31.39C46.7634 30.89 46.5167 30.26 46.5167 29.5C46.5167 28.7467 46.7601 28.12 47.2467 27.62C47.7334 27.12 48.3634 26.87 49.1367 26.87C49.8701 26.87 50.4667 27.13 50.9267 27.65C51.3934 28.1633 51.6267 28.7833 51.6267 29.51C51.6267 29.6367 51.6167 29.7667 51.5967 29.9H47.4067ZM49.1367 27.69C48.6701 27.69 48.2834 27.8233 47.9767 28.09C47.6701 28.35 47.4801 28.7 47.4067 29.14H50.7467C50.6734 28.6667 50.4867 28.3067 50.1867 28.06C49.8867 27.8133 49.5367 27.69 49.1367 27.69Z" fill="white" fill-opacity="0.6"/>
<rect x="58" y="20" width="55" height="17" rx="5" fill="#21FFCA" fill-opacity="0.1"/>
<path opacity="0.94" d="M65.08 28L66.76 24H67.7L65.45 29.34C64.95 30.5133 64.1467 31.0667 63.04 31V30.14C63.42 30.18 63.73 30.1267 63.97 29.98C64.2167 29.8267 64.42 29.56 64.58 29.18L64.65 29.02L62.28 24H63.22L65.08 28ZM70.9083 25.87C71.6083 25.87 72.2049 26.1267 72.6983 26.64C73.1916 27.1533 73.4383 27.7733 73.4383 28.5C73.4383 29.2333 73.1916 29.8567 72.6983 30.37C72.2116 30.8767 71.6149 31.13 70.9083 31.13C70.0816 31.13 69.4516 30.8 69.0183 30.14V33H68.1483V26H69.0183V26.86C69.4516 26.2 70.0816 25.87 70.9083 25.87ZM70.7983 30.29C71.2983 30.29 71.7183 30.12 72.0583 29.78C72.3983 29.4267 72.5683 29 72.5683 28.5C72.5683 27.9933 72.3983 27.57 72.0583 27.23C71.7183 26.8833 71.2983 26.71 70.7983 26.71C70.2916 26.71 69.8683 26.8833 69.5283 27.23C69.1883 27.57 69.0183 27.9933 69.0183 28.5C69.0183 29 69.1883 29.4267 69.5283 29.78C69.8683 30.12 70.2916 30.29 70.7983 30.29ZM78.6964 30.37C78.1897 30.8767 77.5664 31.13 76.8264 31.13C76.0864 31.13 75.4631 30.8767 74.9564 30.37C74.4497 29.8633 74.1964 29.24 74.1964 28.5C74.1964 27.76 74.4497 27.1367 74.9564 26.63C75.4631 26.1233 76.0864 25.87 76.8264 25.87C77.5664 25.87 78.1897 26.1233 78.6964 26.63C79.2097 27.1433 79.4664 27.7667 79.4664 28.5C79.4664 29.2333 79.2097 29.8567 78.6964 30.37ZM76.8264 30.28C77.3264 30.28 77.7464 30.11 78.0864 29.77C78.4264 29.43 78.5964 29.0067 78.5964 28.5C78.5964 27.9933 78.4264 27.57 78.0864 27.23C77.7464 26.89 77.3264 26.72 76.8264 26.72C76.3331 26.72 75.9164 26.89 75.5764 27.23C75.2364 27.57 75.0664 27.9933 75.0664 28.5C75.0664 29.0067 75.2364 29.43 75.5764 29.77C75.9164 30.11 76.3331 30.28 76.8264 30.28ZM83.822 28.43C84.3354 28.6433 84.592 29.03 84.592 29.59C84.592 30.0167 84.452 30.36 84.172 30.62C83.892 30.8733 83.4987 31 82.992 31H80.492V26H82.792C83.2854 26 83.6687 26.1233 83.942 26.37C84.222 26.6167 84.362 26.9467 84.362 27.36C84.362 27.84 84.182 28.1967 83.822 28.43ZM82.752 26.78H81.342V28.09H82.752C83.2587 28.09 83.512 27.8667 83.512 27.42C83.512 26.9933 83.2587 26.78 82.752 26.78ZM81.342 30.21H82.942C83.1954 30.21 83.3887 30.15 83.522 30.03C83.662 29.91 83.732 29.74 83.732 29.52C83.732 29.3133 83.662 29.1533 83.522 29.04C83.3887 28.92 83.1954 28.86 82.942 28.86H81.342V30.21ZM90.3311 28.9H86.1411C86.2278 29.34 86.4311 29.6867 86.7511 29.94C87.0711 30.1867 87.4711 30.31 87.9511 30.31C88.6111 30.31 89.0911 30.0667 89.3911 29.58L90.1311 30C89.6378 30.7533 88.9044 31.13 87.9311 31.13C87.1444 31.13 86.4978 30.8833 85.9911 30.39C85.4978 29.8833 85.2511 29.2533 85.2511 28.5C85.2511 27.74 85.4944 27.1133 85.9811 26.62C86.4678 26.12 87.0978 25.87 87.8711 25.87C88.6044 25.87 89.2011 26.13 89.6611 26.65C90.1278 27.1567 90.3611 27.7767 90.3611 28.51C90.3611 28.6367 90.3511 28.7667 90.3311 28.9ZM87.8711 26.69C87.4111 26.69 87.0244 26.82 86.7111 27.08C86.4044 27.34 86.2144 27.6933 86.1411 28.14H89.4811C89.4078 27.68 89.2244 27.3233 88.9311 27.07C88.6378 26.8167 88.2844 26.69 87.8711 26.69ZM94.8212 28.08V26H95.6912V31H94.8212V28.91H92.2312V31H91.3612V26H92.2312V28.08H94.8212ZM97.8855 27.8H99.1255C99.6255 27.8 100.039 27.95 100.365 28.25C100.699 28.5433 100.865 28.9267 100.865 29.4C100.865 29.8733 100.699 30.26 100.365 30.56C100.032 30.8533 99.6188 31 99.1255 31H97.0155V26H97.8855V27.8ZM97.8855 30.19H99.1255C99.3788 30.19 99.5888 30.1167 99.7555 29.97C99.9221 29.8233 100.005 29.6333 100.005 29.4C100.005 29.1667 99.9188 28.9767 99.7455 28.83C99.5788 28.6767 99.3721 28.6 99.1255 28.6H97.8855V30.19ZM108.521 31H104.001V30.24L106.471 27.72C107.131 27.06 107.461 26.4933 107.461 26.02C107.461 25.6333 107.341 25.33 107.101 25.11C106.867 24.8833 106.574 24.77 106.221 24.77C105.561 24.77 105.081 25.0833 104.781 25.71L104.001 25.25C104.214 24.8033 104.514 24.4633 104.901 24.23C105.287 23.99 105.724 23.87 106.211 23.87C106.804 23.87 107.314 24.0633 107.741 24.45C108.174 24.8433 108.391 25.3633 108.391 26.01C108.391 26.7167 107.974 27.4867 107.141 28.32L105.351 30.1H108.521V31Z" fill="#21FFCA"/>
</svg>
