<svg width="120" height="44" viewBox="0 0 120 44" fill="none" xmlns="http://www.w3.org/2000/svg">
<path d="M0.5 28.5C0.5 25.9278 0.500327 24.0261 0.613422 22.5178C0.726131 21.0145 0.948781 19.9422 1.37264 19.0227C2.31964 16.9685 3.96853 15.3196 6.02273 14.3726C6.94215 13.9488 8.01452 13.7261 9.51777 13.6134C11.0261 13.5003 12.9278 13.5 15.5 13.5H104.5C107.072 13.5 108.974 13.5003 110.482 13.6134C111.985 13.7261 113.058 13.9488 113.977 14.3726C116.031 15.3196 117.68 16.9685 118.627 19.0227C119.051 19.9422 119.274 21.0145 119.387 22.5178C119.5 24.0261 119.5 25.9278 119.5 28.5C119.5 31.0722 119.5 32.9739 119.387 34.4822C119.274 35.9855 119.051 37.0578 118.627 37.9773C117.68 40.0315 116.031 41.6804 113.977 42.6274C113.058 43.0512 111.985 43.2739 110.482 43.3866C108.974 43.4997 107.072 43.5 104.5 43.5H15.5C12.9278 43.5 11.0261 43.4997 9.51777 43.3866C8.01452 43.2739 6.94215 43.0512 6.02273 42.6274C3.96853 41.6804 2.31964 40.0315 1.37264 37.9773C0.948781 37.0578 0.726131 35.9855 0.613422 34.4822C0.500327 32.9739 0.5 31.0722 0.5 28.5Z" stroke="white" stroke-opacity="0.05"/>
<rect x="29" width="62" height="20" fill="#2B2C30"/>
<path opacity="0.94" d="M11.6032 31.07C10.9032 31.7767 10.0465 32.13 9.0332 32.13C8.01987 32.13 7.1632 31.7767 6.4632 31.07C5.7632 30.3633 5.4132 29.5067 5.4132 28.5C5.4132 27.4867 5.7632 26.63 6.4632 25.93C7.1632 25.2233 8.01987 24.87 9.0332 24.87C10.0465 24.87 10.9032 25.2233 11.6032 25.93C12.3099 26.63 12.6632 27.4867 12.6632 28.5C12.6632 29.5067 12.3099 30.3633 11.6032 31.07ZM7.1032 30.44C7.6232 30.96 8.26654 31.22 9.0332 31.22C9.79987 31.22 10.4399 30.96 10.9532 30.44C11.4732 29.9133 11.7332 29.2667 11.7332 28.5C11.7332 27.7267 11.4732 27.08 10.9532 26.56C10.4399 26.0333 9.79987 25.77 9.0332 25.77C8.26654 25.77 7.6232 26.0333 7.1032 26.56C6.58987 27.08 6.3332 27.7267 6.3332 28.5C6.3332 29.2667 6.58987 29.9133 7.1032 30.44ZM15.9613 32.13C15.2213 32.13 14.6113 31.8867 14.1313 31.4C13.6513 30.9133 13.4113 30.2867 13.4113 29.52C13.4113 28.6667 13.5346 28.01 13.7813 27.55C14.0346 27.09 14.5479 26.6733 15.3213 26.3C15.4613 26.2333 15.6513 26.1467 15.8913 26.04C16.1379 25.9333 16.3179 25.8533 16.4313 25.8C16.5446 25.74 16.6713 25.6633 16.8113 25.57C16.9513 25.47 17.0546 25.3633 17.1213 25.25C17.1946 25.13 17.2479 24.9933 17.2813 24.84L17.9813 25.24C17.9613 25.3467 17.9346 25.4467 17.9013 25.54C17.8679 25.6267 17.8179 25.7133 17.7513 25.8C17.6913 25.88 17.6379 25.95 17.5913 26.01C17.5446 26.07 17.4646 26.1367 17.3513 26.21C17.2446 26.2767 17.1646 26.3267 17.1113 26.36C17.0646 26.3933 16.9679 26.4433 16.8213 26.51C16.6813 26.5767 16.5846 26.6233 16.5313 26.65C16.4846 26.67 16.3746 26.7167 16.2013 26.79C16.0279 26.8567 15.9213 26.9 15.8813 26.92C15.4279 27.1133 15.0946 27.31 14.8813 27.51C14.6746 27.71 14.5246 27.9633 14.4313 28.27C14.6446 28.0033 14.9113 27.8067 15.2313 27.68C15.5513 27.5533 15.8713 27.49 16.1913 27.49C16.8179 27.49 17.3479 27.7033 17.7813 28.13C18.2213 28.5567 18.4413 29.1067 18.4413 29.78C18.4413 30.46 18.2079 31.0233 17.7413 31.47C17.2746 31.91 16.6813 32.13 15.9613 32.13ZM14.7913 30.85C15.1046 31.1433 15.4946 31.29 15.9613 31.29C16.4279 31.29 16.8113 31.1467 17.1113 30.86C17.4179 30.5733 17.5713 30.2133 17.5713 29.78C17.5713 29.3333 17.4246 28.97 17.1313 28.69C16.8446 28.4033 16.4646 28.26 15.9913 28.26C15.5646 28.26 15.1779 28.3967 14.8313 28.67C14.4913 28.9367 14.3213 29.29 14.3213 29.73C14.3213 30.1833 14.4779 30.5567 14.7913 30.85ZM22.6598 27H23.5898L21.5498 32.31C21.3364 32.8767 21.0364 33.3067 20.6498 33.6C20.2631 33.9 19.8231 34.0333 19.3298 34V33.19C19.9431 33.2367 20.3931 32.9033 20.6798 32.19L20.7598 32.01L18.5898 27H19.5098L21.2198 30.92L22.6598 27ZM27.4663 27H28.3363V32H27.4663V30.2C27.0663 30.3733 26.6163 30.46 26.1163 30.46C25.4763 30.46 24.9796 30.31 24.6263 30.01C24.2796 29.7033 24.1063 29.2533 24.1063 28.66V27H24.9762V28.61C24.9762 28.9833 25.0762 29.25 25.2763 29.41C25.4829 29.57 25.7829 29.65 26.1763 29.65C26.6496 29.65 27.0796 29.5633 27.4663 29.39V27ZM30.268 29.9C30.3547 30.3467 30.558 30.6933 30.878 30.94C31.2047 31.1867 31.6047 31.31 32.078 31.31C32.738 31.31 33.218 31.0667 33.518 30.58L34.258 31C33.7714 31.7533 33.038 32.13 32.058 32.13C31.2647 32.13 30.618 31.8833 30.118 31.39C29.6247 30.89 29.378 30.26 29.378 29.5C29.378 28.7467 29.6214 28.12 30.108 27.62C30.5947 27.12 31.2247 26.87 31.998 26.87C32.7314 26.87 33.328 27.13 33.788 27.65C34.2547 28.1633 34.488 28.7833 34.488 29.51C34.488 29.6367 34.478 29.7667 34.458 29.9H30.268ZM31.998 27.69C31.5314 27.69 31.1447 27.8233 30.838 28.09C30.5314 28.35 30.3414 28.7 30.268 29.14H33.608C33.5347 28.6667 33.348 28.3067 33.048 28.06C32.748 27.8133 32.398 27.69 31.998 27.69ZM38.9481 27H39.8181V32H38.9481V29.91H36.3581V32H35.4881V27H36.3581V29.08H38.9481V27ZM44.7724 27H45.4724V32H44.6124V28.49L41.8424 32H41.1424V27H42.0024V30.51L44.7724 27ZM47.4067 29.9C47.4934 30.3467 47.6967 30.6933 48.0167 30.94C48.3434 31.1867 48.7434 31.31 49.2167 31.31C49.8767 31.31 50.3567 31.0667 50.6567 30.58L51.3967 31C50.9101 31.7533 50.1767 32.13 49.1967 32.13C48.4034 32.13 47.7567 31.8833 47.2567 31.39C46.7634 30.89 46.5167 30.26 46.5167 29.5C46.5167 28.7467 46.7601 28.12 47.2467 27.62C47.7334 27.12 48.3634 26.87 49.1367 26.87C49.8701 26.87 50.4667 27.13 50.9267 27.65C51.3934 28.1633 51.6267 28.7833 51.6267 29.51C51.6267 29.6367 51.6167 29.7667 51.5967 29.9H47.4067ZM49.1367 27.69C48.6701 27.69 48.2834 27.8233 47.9767 28.09C47.6701 28.35 47.4801 28.7 47.4067 29.14H50.7467C50.6734 28.6667 50.4867 28.3067 50.1867 28.06C49.8867 27.8133 49.5367 27.69 49.1367 27.69Z" fill="white" fill-opacity="0.6"/>
<rect x="58" y="20" width="56" height="17" rx="5" fill="#21FFCA" fill-opacity="0.1"/>
<path opacity="0.94" d="M66.76 25H67.7L65.45 30.34C65.1967 30.94 64.8733 31.3767 64.48 31.65C64.0867 31.9167 63.6067 32.0333 63.04 32V31.14C63.4267 31.18 63.74 31.1233 63.98 30.97C64.22 30.8167 64.42 30.5533 64.58 30.18L64.65 30.02L62.28 25H63.22L65.08 29L66.76 25ZM70.9083 26.87C71.6083 26.87 72.2049 27.1267 72.6983 27.64C73.1916 28.1467 73.4383 28.7667 73.4383 29.5C73.4383 30.2333 73.1916 30.8567 72.6983 31.37C72.2049 31.8767 71.6083 32.13 70.9083 32.13C70.0816 32.13 69.4516 31.8 69.0183 31.14V34H68.1483V27H69.0183V27.86C69.4516 27.2 70.0816 26.87 70.9083 26.87ZM70.7983 31.29C71.2983 31.29 71.7183 31.12 72.0583 30.78C72.3983 30.4333 72.5683 30.0067 72.5683 29.5C72.5683 28.9933 72.3983 28.57 72.0583 28.23C71.7183 27.8833 71.2983 27.71 70.7983 27.71C70.2916 27.71 69.8683 27.8833 69.5283 28.23C69.1883 28.57 69.0183 28.9933 69.0183 29.5C69.0183 30.0067 69.1883 30.4333 69.5283 30.78C69.8683 31.12 70.2916 31.29 70.7983 31.29ZM78.6964 31.37C78.1831 31.8767 77.5597 32.13 76.8264 32.13C76.0931 32.13 75.4697 31.8767 74.9564 31.37C74.4497 30.8633 74.1964 30.24 74.1964 29.5C74.1964 28.76 74.4497 28.1367 74.9564 27.63C75.4697 27.1233 76.0931 26.87 76.8264 26.87C77.5597 26.87 78.1831 27.1233 78.6964 27.63C79.2097 28.1367 79.4664 28.76 79.4664 29.5C79.4664 30.24 79.2097 30.8633 78.6964 31.37ZM76.8264 31.28C77.3264 31.28 77.7464 31.11 78.0864 30.77C78.4264 30.43 78.5964 30.0067 78.5964 29.5C78.5964 28.9933 78.4264 28.57 78.0864 28.23C77.7464 27.89 77.3264 27.72 76.8264 27.72C76.3331 27.72 75.9164 27.89 75.5764 28.23C75.2364 28.57 75.0664 28.9933 75.0664 29.5C75.0664 30.0067 75.2364 30.43 75.5764 30.77C75.9164 31.11 76.3331 31.28 76.8264 31.28ZM83.822 29.43C84.3354 29.6433 84.592 30.03 84.592 30.59C84.592 31.0033 84.452 31.3433 84.172 31.61C83.8987 31.87 83.5054 32 82.992 32H80.492V27H82.792C83.292 27 83.6787 27.1267 83.952 27.38C84.2254 27.6267 84.362 27.9533 84.362 28.36C84.362 28.84 84.182 29.1967 83.822 29.43ZM82.752 27.78H81.342V29.09H82.752C83.2587 29.09 83.512 28.8667 83.512 28.42C83.512 27.9933 83.2587 27.78 82.752 27.78ZM82.942 31.21C83.1954 31.21 83.3887 31.15 83.522 31.03C83.662 30.91 83.732 30.74 83.732 30.52C83.732 30.3133 83.662 30.1533 83.522 30.04C83.3887 29.92 83.1954 29.86 82.942 29.86H81.342V31.21H82.942ZM86.1411 29.9C86.2278 30.3467 86.4311 30.6933 86.7511 30.94C87.0778 31.1867 87.4778 31.31 87.9511 31.31C88.6111 31.31 89.0911 31.0667 89.3911 30.58L90.1311 31C89.6444 31.7533 88.9111 32.13 87.9311 32.13C87.1378 32.13 86.4911 31.8833 85.9911 31.39C85.4978 30.89 85.2511 30.26 85.2511 29.5C85.2511 28.7467 85.4944 28.12 85.9811 27.62C86.4678 27.12 87.0978 26.87 87.8711 26.87C88.6044 26.87 89.2011 27.13 89.6611 27.65C90.1278 28.1633 90.3611 28.7833 90.3611 29.51C90.3611 29.6367 90.3511 29.7667 90.3311 29.9H86.1411ZM87.8711 27.69C87.4044 27.69 87.0178 27.8233 86.7111 28.09C86.4044 28.35 86.2144 28.7 86.1411 29.14H89.4811C89.4078 28.6667 89.2211 28.3067 88.9211 28.06C88.6211 27.8133 88.2711 27.69 87.8711 27.69ZM94.8212 27H95.6912V32H94.8212V29.91H92.2312V32H91.3612V27H92.2312V29.08H94.8212V27ZM99.1255 28.8C99.6255 28.8 100.039 28.95 100.365 29.25C100.699 29.5433 100.865 29.9267 100.865 30.4C100.865 30.8733 100.699 31.26 100.365 31.56C100.039 31.8533 99.6255 32 99.1255 32H97.0155V27H97.8855V28.8H99.1255ZM99.1255 31.19C99.3721 31.19 99.5788 31.12 99.7455 30.98C99.9188 30.8333 100.005 30.64 100.005 30.4C100.005 30.16 99.9188 29.9667 99.7455 29.82C99.5788 29.6733 99.3721 29.6 99.1255 29.6H97.8855V31.19H99.1255ZM106.341 27.73C107.001 27.73 107.557 27.9267 108.011 28.32C108.471 28.7067 108.701 29.2433 108.701 29.93C108.701 30.61 108.467 31.1467 108.001 31.54C107.534 31.9333 106.967 32.13 106.301 32.13C105.767 32.13 105.291 32.0033 104.871 31.75C104.451 31.49 104.157 31.1167 103.991 30.63L104.781 30.18C104.874 30.52 105.054 30.78 105.321 30.96C105.587 31.1333 105.914 31.22 106.301 31.22C106.741 31.22 107.097 31.1067 107.371 30.88C107.644 30.6533 107.781 30.3367 107.781 29.93C107.781 29.5233 107.644 29.2067 107.371 28.98C107.097 28.7467 106.747 28.63 106.321 28.63H104.341L104.601 25H108.431V25.87H105.441L105.321 27.73H106.341Z" fill="#21FFCA"/>
</svg>
