<svg width="19" height="23" viewBox="0 0 19 23" fill="none" xmlns="http://www.w3.org/2000/svg">
<path fill-rule="evenodd" clip-rule="evenodd" d="M14.3242 9.5H15.9688C17.159 9.5 18.125 10.508 18.125 11.75C18.125 12.224 17.9841 12.665 17.7441 13.028V13.028H17.7426C17.7354 13.04 17.7268 13.0535 17.7182 13.0655L11.8992 21.653C11.8661 21.704 11.8331 21.755 11.7971 21.803V21.8045V21.8045C11.2724 22.5305 10.4387 23 9.5 23C8.56131 23 7.72756 22.5305 7.20287 21.8045V21.8045V21.803C7.16694 21.755 7.13387 21.704 7.10081 21.653L1.28181 13.0655C1.02594 12.695 0.875 12.2405 0.875 11.75C0.875 10.508 1.841 9.5 3.03125 9.5H4.64987C5.83725 10.889 7.56513 11.7635 9.48706 11.7635C11.409 11.7635 13.1369 10.889 14.3242 9.5V9.5ZM9.48706 0.5C11.8676 0.5 13.7996 2.516 13.7996 5C13.7996 7.484 11.8676 9.5 9.48706 9.5C7.10656 9.5 5.17456 7.484 5.17456 5C5.17456 2.516 7.10656 0.5 9.48706 0.5Z" fill="#2A59FF"/>
</svg>
