<svg width="17" height="17" viewBox="0 0 17 17" fill="none" xmlns="http://www.w3.org/2000/svg">
<path d="M16.0555 5.11422L10.3889 0.648566C9.86944 0.230904 9.19696 0 8.50003 0C7.8031 0 7.13062 0.230904 6.61115 0.648566L0.944527 5.11422C0.644544 5.3554 0.405159 5.65125 0.242311 5.98209C0.0794636 6.31293 -0.00310962 6.67116 8.95271e-05 7.03293V14.453C8.95271e-05 15.1285 0.298599 15.7764 0.829948 16.254C1.3613 16.7317 2.08196 17 2.8334 17H14.1667C14.9181 17 15.6388 16.7317 16.1701 16.254C16.7015 15.7764 17 15.1285 17 14.453V7.02444C17.0018 6.6641 16.9186 6.3075 16.7558 5.97822C16.593 5.64893 16.3543 5.35445 16.0555 5.11422V5.11422ZM10.3889 15.302H6.61115V11.0571C6.61115 10.8319 6.71066 10.616 6.88777 10.4568C7.06489 10.2976 7.30511 10.2081 7.55559 10.2081H9.44447C9.69495 10.2081 9.93517 10.2976 10.1123 10.4568C10.2894 10.616 10.3889 10.8319 10.3889 11.0571V15.302ZM15.1111 14.453C15.1111 14.6782 15.0116 14.8942 14.8345 15.0534C14.6574 15.2126 14.4171 15.302 14.1667 15.302H12.2778V11.0571C12.2778 10.3816 11.9793 9.73379 11.4479 9.25614C10.9166 8.7785 10.1959 8.51016 9.44447 8.51016H7.55559C6.80415 8.51016 6.08349 8.7785 5.55214 9.25614C5.02079 9.73379 4.72228 10.3816 4.72228 11.0571V15.302H2.8334C2.58292 15.302 2.3427 15.2126 2.16558 15.0534C1.98847 14.8942 1.88897 14.6782 1.88897 14.453V7.02444C1.88913 6.90389 1.91786 6.78477 1.97323 6.67498C2.02859 6.56519 2.10933 6.46726 2.21007 6.3877L7.8767 1.93053C8.04905 1.79442 8.27062 1.71936 8.50003 1.71936C8.72944 1.71936 8.95101 1.79442 9.12336 1.93053L14.79 6.3877C14.8907 6.46726 14.9715 6.56519 15.0268 6.67498C15.0822 6.78477 15.1109 6.90389 15.1111 7.02444V14.453Z" fill="#FF922B"/>
</svg>
