<svg width="18" height="18" viewBox="0 0 18 18" fill="none" xmlns="http://www.w3.org/2000/svg">
<path d="M9 7.2C9.2225 7.2 9.44001 7.13402 9.62501 7.01041C9.81002 6.88679 9.95421 6.71109 10.0394 6.50552C10.1245 6.29996 10.1468 6.07375 10.1034 5.85553C10.06 5.6373 9.95283 5.43684 9.79549 5.27951C9.63816 5.12217 9.4377 5.01503 9.21947 4.97162C9.00125 4.92821 8.77505 4.95049 8.56948 5.03564C8.36391 5.12079 8.18821 5.26498 8.06459 5.44999C7.94098 5.63499 7.875 5.8525 7.875 6.075C7.875 6.37337 7.99352 6.65952 8.2045 6.8705C8.41548 7.08148 8.70163 7.2 9 7.2ZM9 8.55C8.7613 8.55 8.53238 8.64482 8.3636 8.81361C8.19482 8.98239 8.1 9.21131 8.1 9.45L8.1 12.15C8.1 12.3887 8.19482 12.6176 8.3636 12.7864C8.53238 12.9552 8.7613 13.05 9 13.05C9.23869 13.05 9.46761 12.9552 9.63639 12.7864C9.80518 12.6176 9.9 12.3887 9.9 12.15L9.9 9.45C9.9 9.21131 9.80518 8.98239 9.63639 8.81361C9.46761 8.64482 9.23869 8.55 9 8.55ZM9 18C10.78 18 12.5201 17.4722 14.0001 16.4832C15.4802 15.4943 16.6337 14.0887 17.3149 12.4442C17.9961 10.7996 18.1743 8.99002 17.8271 7.24419C17.4798 5.49836 16.6226 3.89471 15.364 2.63604C14.1053 1.37737 12.5016 0.520201 10.7558 0.172934C9.00998 -0.174331 7.20038 0.00389766 5.55585 0.685086C3.91131 1.36628 2.50571 2.51983 1.51677 3.99987C0.527842 5.47991 9.64928e-07 7.21997 1.12054e-06 9C0.00265445 11.3861 0.951717 13.6738 2.63897 15.361C4.32622 17.0483 6.61386 17.9973 9 18ZM9 1.8C10.424 1.8 11.8161 2.22228 13.0001 3.01342C14.1841 3.80457 15.107 4.92905 15.6519 6.24468C16.1969 7.56031 16.3395 9.00799 16.0616 10.4047C15.7838 11.8013 15.0981 13.0842 14.0912 14.0912C13.0842 15.0981 11.8013 15.7838 10.4046 16.0617C9.00798 16.3395 7.56031 16.1969 6.24468 15.6519C4.92905 15.107 3.80457 14.1841 3.01342 13.0001C2.22227 11.8161 1.8 10.424 1.8 9C1.80218 7.09111 2.56145 5.26104 3.91124 3.91125C5.26103 2.56146 7.09111 1.80219 9 1.8Z" fill="#FF922B"/>
</svg>
