<svg width="75" height="22" viewBox="0 0 75 22" fill="none" xmlns="http://www.w3.org/2000/svg">
<path d="M20.9291 10.2C20.9291 12.7947 20.0704 15.0533 18.3531 16.976L20.4251 19.104L18.1571 21.148L16.0011 18.936C14.3398 19.888 12.5944 20.364 10.7651 20.364C7.96509 20.364 5.56643 19.384 3.56909 17.424C1.59043 15.4453 0.601094 13.0373 0.601094 10.2C0.601094 7.36267 1.59043 4.964 3.56909 3.004C5.54776 1.02533 7.94643 0.0359983 10.7651 0.0359983C13.5838 0.0359983 15.9824 1.02533 17.9611 3.004C19.9398 4.964 20.9291 7.36267 20.9291 10.2ZM10.7651 17.228C11.7731 17.228 12.7531 17.0133 13.7051 16.584L10.1211 12.916L12.3891 10.872L16.1411 14.708C17.1864 13.4013 17.7091 11.8987 17.7091 10.2C17.7091 8.20267 17.0371 6.532 15.6931 5.188C14.3491 3.844 12.7064 3.172 10.7651 3.172C8.82376 3.172 7.18109 3.844 5.83709 5.188C4.49309 6.532 3.82109 8.20267 3.82109 10.2C3.82109 12.1973 4.49309 13.868 5.83709 15.212C7.18109 16.556 8.82376 17.228 10.7651 17.228Z" fill="#2A59FF"/>
<path d="M24.003 20V0.399999H27.223V20H24.003ZM39.0077 20H35.2837L29.7397 0.399999H33.1277L37.2437 15.716L41.6957 0.399999H44.6637L49.0877 15.716L53.2037 0.399999H56.5917L51.0477 20H47.3237L43.1797 5.692L39.0077 20ZM74.2313 20H70.7593L69.3873 16.052H61.0433L59.6713 20H56.1713L63.2833 0.399999H67.1473L74.2313 20ZM65.2153 4.18L62.1073 13.028H68.3233L65.2153 4.18Z" fill="white"/>
</svg>
