<svg width="18" height="18" viewBox="0 0 18 18" fill="none" xmlns="http://www.w3.org/2000/svg">
<path d="M9 9C7.74759 9 6.54647 8.52589 5.66088 7.68198C4.7753 6.83807 4.27778 5.69347 4.27778 4.5C4.27778 3.30653 4.7753 2.16193 5.66088 1.31802C6.54647 0.474106 7.74759 0 9 0C10.2524 0 11.4535 0.474106 12.3391 1.31802C13.2247 2.16193 13.7222 3.30653 13.7222 4.5C13.7222 5.69347 13.2247 6.83807 12.3391 7.68198C11.4535 8.52589 10.2524 9 9 9ZM9 7.2C9.37208 7.2 9.74051 7.13016 10.0843 6.99447C10.428 6.85879 10.7404 6.65991 11.0035 6.40919C11.2666 6.15847 11.4753 5.86082 11.6177 5.53325C11.76 5.20567 11.8333 4.85457 11.8333 4.5C11.8333 4.14543 11.76 3.79433 11.6177 3.46675C11.4753 3.13918 11.2666 2.84153 11.0035 2.59081C10.7404 2.34009 10.428 2.14121 10.0843 2.00553C9.74051 1.86984 9.37208 1.8 9 1.8C8.24855 1.8 7.52788 2.08446 6.99653 2.59081C6.46518 3.09716 6.16667 3.78392 6.16667 4.5C6.16667 5.21608 6.46518 5.90284 6.99653 6.40919C7.52788 6.91554 8.24855 7.2 9 7.2ZM17.5 17.1C17.5 17.3387 17.4005 17.5676 17.2234 17.7364C17.0463 17.9052 16.806 18 16.5556 18C16.3051 18 16.0648 17.9052 15.8877 17.7364C15.7106 17.5676 15.6111 17.3387 15.6111 17.1V15.3C15.6111 14.5839 15.3126 13.8972 14.7812 13.3908C14.2499 12.8845 13.5292 12.6 12.7778 12.6H5.22222C4.47078 12.6 3.75011 12.8845 3.21875 13.3908C2.6874 13.8972 2.38889 14.5839 2.38889 15.3V17.1C2.38889 17.3387 2.28938 17.5676 2.11227 17.7364C1.93515 17.9052 1.69493 18 1.44444 18C1.19396 18 0.953739 17.9052 0.776621 17.7364C0.599504 17.5676 0.5 17.3387 0.5 17.1V15.3C0.5 14.1065 0.997518 12.9619 1.88311 12.118C2.7687 11.2741 3.96981 10.8 5.22222 10.8H12.7778C14.0302 10.8 15.2313 11.2741 16.1169 12.118C17.0025 12.9619 17.5 14.1065 17.5 15.3V17.1Z" fill="#FF922B"/>
</svg>
